<svg xmlns="http://www.w3.org/2000/svg" width="304.915625" height="304.915625" viewBox="0 0 364.0625 364.0625">
    <defs></defs>
    <g featurekey="rootContainer" transform="matrix(7.28125,0,0,7.28125,0,0)" fill="#3485a5">
        <path xmlns="http://www.w3.org/2000/svg"
            d="M50 25c0 8.88-3.62 15.67-10.6 20.11C35.53 47.58 29.93 50 25 50c-8.63 0-14.24-1.37-18.73-8C3.57 38 0 30.2 0 25c0-6.85 1.76-14.06 6.22-18.58S18.04 0 25 0c9.5 0 16.77 5.3 21 13.11 1.88 3.53 4 7.58 4 11.89z">
        </path>
    </g>
    <g featurekey="symbolFeature-0"
        transform="matrix(1.0846723782053445,0,0,1.0846723782053445,127.76583905145785,60.57642191431782)"
        fill="#ffffff">
        <g xmlns="http://www.w3.org/2000/svg" display="none">
            <rect x="-900.877" y="-637.172" display="inline" fill="#ffffff" width="1370.931" height="1263.231"></rect>
        </g>
        <g xmlns="http://www.w3.org/2000/svg">
            <path
                d="M64.051,66.572c-0.481-0.078-0.973,0.077-1.319,0.423l-5.537,5.537c-1.922,1.922-4.476,2.981-7.194,2.981   s-5.273-1.059-7.195-2.981l-5.537-5.537c-0.346-0.347-0.841-0.504-1.319-0.423c-13.013,2.163-22.827,13.733-22.827,26.914   c0,0.836,0.678,1.514,1.514,1.514h70.727c0.836,0,1.514-0.678,1.514-1.514C86.878,80.305,77.064,68.735,64.051,66.572z    M16.199,91.971c0.697-10.823,8.794-20.135,19.489-22.273l4.975,4.975c2.494,2.495,5.81,3.868,9.336,3.868   c3.527,0,6.842-1.374,9.335-3.868l4.975-4.975c10.695,2.138,18.792,11.449,19.489,22.273H16.199z">
            </path>
            <path
                d="M44.875,47.284L44.875,47.284c1.674,0.673,3.404,0.992,5.107,0.991c5.453,0,10.624-3.265,12.778-8.627   c2.826-7.036-0.599-15.059-7.636-17.884c-7.036-2.827-15.059,0.599-17.885,7.636c-1.369,3.408-1.328,7.146,0.113,10.524   C38.796,43.302,41.467,45.916,44.875,47.284z M40.05,30.529c1.68-4.181,5.712-6.727,9.965-6.727c1.327,0,2.677,0.248,3.982,0.772   c2.657,1.068,4.74,3.106,5.865,5.74c1.124,2.635,1.156,5.548,0.089,8.206c-2.205,5.488-8.457,8.159-13.947,5.954   c-2.657-1.068-4.74-3.106-5.865-5.74C39.014,36.1,38.983,33.187,40.05,30.529z">
            </path>
            <path
                d="M22.227,29.854c-0.833-0.039-1.475,0.555-1.564,1.343c-0.275,2.421-0.247,4.874,0.082,7.29   c0.107,0.785,0.816,1.356,1.591,1.306c2.692-0.168,5.211,1.391,6.267,3.865c1.057,2.474,0.437,5.368-1.543,7.201   c-0.582,0.538-0.65,1.434-0.157,2.054c1.518,1.911,3.272,3.628,5.21,5.102c0.631,0.479,1.526,0.392,2.051-0.202   c1.789-2.019,4.666-2.702,7.166-1.7c2.498,1.003,4.104,3.488,3.998,6.184c-0.031,0.792,0.554,1.474,1.342,1.564   c1.102,0.126,2.211,0.188,3.321,0.188c1.326,0,2.654-0.09,3.972-0.269c0.785-0.107,1.355-0.802,1.306-1.592   c-0.163-2.692,1.39-5.211,3.865-6.267c2.477-1.056,5.369-0.436,7.2,1.543c0.537,0.582,1.433,0.651,2.054,0.157   c1.909-1.517,3.626-3.27,5.102-5.209c0.48-0.631,0.392-1.525-0.201-2.051c-2.02-1.789-2.704-4.668-1.701-7.166   c1.003-2.498,3.48-4.102,6.185-3.999c0.83,0.03,1.474-0.555,1.564-1.343c0.275-2.421,0.247-4.874-0.082-7.291   c-0.106-0.785-0.783-1.351-1.592-1.306c-2.672,0.163-5.21-1.389-6.266-3.865c-1.057-2.475-0.437-5.368,1.543-7.2   c0.582-0.537,0.651-1.433,0.158-2.053c-1.518-1.911-3.271-3.628-5.21-5.103c-0.631-0.48-1.526-0.393-2.051,0.201   c-1.789,2.02-4.673,2.702-7.166,1.701c-2.498-1.004-4.105-3.489-3.999-6.185c0.031-0.792-0.554-1.474-1.342-1.564   c-2.418-0.275-4.87-0.248-7.291,0.081c-0.785,0.106-1.356,0.801-1.307,1.592c0.163,2.692-1.39,5.211-3.864,6.267   c-2.475,1.058-5.369,0.437-7.201-1.543c-0.536-0.581-1.432-0.65-2.054-0.157c-1.91,1.518-3.627,3.271-5.101,5.209   c-0.48,0.631-0.392,1.525,0.201,2.051c2.019,1.789,2.703,4.669,1.7,7.166C27.409,28.351,24.891,29.942,22.227,29.854z    M31.222,26.984c1.298-3.229,0.684-6.89-1.494-9.521c0.852-1.013,1.782-1.961,2.778-2.836c2.675,2.12,6.351,2.652,9.549,1.288   c3.2-1.367,5.354-4.39,5.674-7.787c1.321-0.115,2.65-0.129,3.97-0.044c0.392,3.391,2.612,6.367,5.842,7.664   c3.228,1.296,6.889,0.682,9.521-1.495c1.013,0.853,1.961,1.782,2.836,2.779c-2.12,2.675-2.654,6.349-1.288,9.548   c1.366,3.201,4.388,5.355,7.786,5.675c0.114,1.319,0.13,2.647,0.045,3.969c-3.392,0.394-6.369,2.614-7.664,5.843   c-1.297,3.229-0.683,6.89,1.495,9.52c-0.853,1.013-1.783,1.961-2.779,2.836c-2.674-2.119-6.349-2.651-9.548-1.288   c-3.2,1.367-5.355,4.39-5.675,7.787c-1.32,0.114-2.647,0.13-3.97,0.044c-0.392-3.391-2.612-6.367-5.841-7.663   c-3.233-1.301-6.892-0.684-9.521,1.494c-1.013-0.852-1.962-1.782-2.837-2.778c2.12-2.677,2.653-6.35,1.288-9.549   s-4.388-5.354-7.786-5.674c-0.114-1.32-0.13-2.648-0.045-3.97C26.95,32.431,29.926,30.212,31.222,26.984z">
            </path>
        </g>
    </g>
    <g featurekey="nameFeature-0"
        transform="matrix(3.363045296632131,0,0,3.363045296632131,80.0139301287775,166.78120205161363)" fill="#ffffff">
        <path
            d="M17.44 37.24 c0.08 0.6 -0.16 1.12 -0.68 1.44 c-0.28 0.16 -0.6 0.28 -0.92 0.36 c-0.84 0.16 -1.72 0.24 -2.6 0.36 c-0.44 0.08 -0.84 0 -1.24 -0.2 c-0.84 -0.44 -1.08 -1.52 -0.44 -2.24 c0.16 -0.12 0.28 -0.24 0.44 -0.32 c0.24 -0.16 0.32 -0.32 0.28 -0.6 c-0.28 -1.4 -0.56 -2.8 -0.8 -4.24 c-0.48 0.28 -0.56 0.76 -0.72 1.16 c-0.4 1 -0.92 1.96 -1.56 2.84 c-0.76 1.04 -1.8 1.72 -3.08 2 c-1.12 0.24 -2.12 -0.04 -3 -0.72 c-0.6 -0.48 -1.04 -1.08 -1.36 -1.76 c-0.68 -1.36 -0.96 -2.84 -1.08 -4.32 c-0.16 -1.8 -0.12 -3.64 0.24 -5.44 c0.08 -0.4 0.16 -0.8 0.32 -1.2 c0.08 -0.28 0.24 -0.52 0.44 -0.72 c0.4 -0.44 0.96 -0.56 1.52 -0.36 c0.6 0.2 0.84 0.68 0.92 1.28 c0 0.2 -0.04 0.4 -0.08 0.56 c-0.4 1.28 -0.4 2.6 -0.44 3.88 c-0.04 1.4 0.04 2.8 0.48 4.16 c0.16 0.52 0.36 1.04 0.76 1.44 c0.28 0.28 0.56 0.36 0.88 0.24 c0.52 -0.2 0.92 -0.52 1.2 -0.96 c0.4 -0.68 0.84 -1.36 1.12 -2.08 c0.84 -2.12 1.6 -4.28 2.4 -6.44 c0.16 -0.4 0.32 -0.88 0.52 -1.28 c0.28 -0.6 0.92 -0.92 1.48 -0.84 c0.64 0.12 1.08 0.52 1.24 1.16 c0.08 0.2 0.08 0.44 0.08 0.68 c-0.08 2.16 0.36 4.28 0.68 6.4 c0.2 1.28 0.44 2.56 0.72 3.84 c0.12 0.64 0.16 0.64 0.8 0.72 l0.28 0 c0.64 0.12 1.08 0.56 1.2 1.2 z M32.349999999999994 21.8 c0.52 0.24 0.88 0.6 0.92 1.16 c0.08 0.6 -0.16 1.16 -0.72 1.4 c-0.6 0.24 -0.8 0.68 -0.96 1.24 c-0.68 2.52 -1.4 5.04 -2.12 7.52 c-0.36 1.16 -0.76 2.32 -1.16 3.44 c-0.2 0.56 -0.48 1.16 -0.8 1.64 c-0.68 1.12 -1.88 1.24 -2.84 0.28 c-0.48 -0.48 -0.72 -1.08 -0.96 -1.68 c-0.52 -1.4 -1.04 -2.8 -1.52 -4.2 c-0.8 -2.36 -1.52 -4.72 -2.28 -7.04 c-0.12 -0.4 -0.24 -0.8 -0.28 -1.24 c-0.04 -0.68 0.36 -1.24 0.92 -1.4 c0.76 -0.2 1.44 0.04 1.8 0.72 c0.16 0.32 0.24 0.68 0.36 1.04 c0.88 2.56 1.68 5.16 2.56 7.72 c0.16 0.52 0.36 1.04 0.56 1.56 l0.24 0 c0.2 -0.6 0.4 -1.24 0.6 -1.84 c0.68 -2.32 1.32 -4.68 2 -7 c0.16 -0.6 0.28 -1.04 -0.44 -1.36 c-0.4 -0.16 -0.52 -0.64 -0.52 -1.08 c-0.04 -0.72 0.4 -1.24 1.08 -1.4 c0.08 -0.04 0.2 -0.04 0.28 -0.04 c0.36 -0.04 2.96 0.4 3.28 0.56 z M39.1 36.72 c0.04 0.32 0.08 0.64 0.04 0.96 c-0.08 0.68 -0.56 1.16 -1.28 1.28 c-0.6 0.12 -1.2 -0.2 -1.48 -0.8 c-0.12 -0.24 -0.24 -0.52 -0.28 -0.76 c-0.12 -0.88 -0.24 -1.76 -0.28 -2.64 c-0.16 -2.32 -0.24 -4.64 -0.32 -7 c0 -0.16 -0.04 -0.36 -0.04 -0.56 l-0.04 0 l0 -3.6 c0 -0.4 0.04 -0.76 0.28 -1.08 c0.32 -0.44 0.76 -0.68 1.32 -0.6 c0.6 0.08 1.04 0.44 1.2 1.04 c0.08 0.28 0.12 0.64 0.12 0.96 c0.08 2.92 0.2 5.84 0.32 8.8 c0.08 1.32 0.12 2.68 0.44 4 z M37.34 18.96 c-0.84 -0.04 -1.6 -0.84 -1.52 -1.68 c0.04 -0.76 0.76 -1.4 1.48 -1.36 c0.8 0.04 1.52 0.84 1.48 1.6 c0 0.76 -0.72 1.44 -1.44 1.44 z M53.29 32.28 c0.16 -0.36 0.12 -0.68 -0.04 -1.04 c-1 -1.76 -2.48 -2.92 -4.36 -3.48 c-1.36 -0.44 -2.56 -0.04 -3.52 1 c-0.56 0.6 -0.88 1.32 -1.04 2.12 c-0.36 1.6 0.4 3.08 1.84 3.84 c0.72 0.36 1.48 0.52 2.2 0.52 c2.24 -0.04 4.08 -1.12 4.92 -2.96 z M59.29 5.359999999999999 c0.72 0.4 1 1.4 0.56 2.08 c-0.24 0.36 -0.6 0.6 -1.04 0.6 c-0.56 0.04 -1.12 0.04 -1.68 0.08 c-0.36 0.04 -0.52 0.24 -0.56 0.56 l0 0.28 c0 4.72 -0.32 9.48 -0.16 14.24 c0.08 2.44 0.16 4.84 0.28 7.28 c0.04 1.08 0.12 2.12 0.2 3.2 c0.08 0.8 0.12 1.6 0.2 2.36 c0.08 0.6 0.04 1.12 -0.28 1.64 c-0.52 0.84 -1.8 0.88 -2.32 0 c-0.24 -0.36 -0.36 -0.84 -0.56 -1.28 c-0.4 0.24 -0.8 0.48 -1.2 0.68 c-1.36 0.72 -2.76 1.2 -4.28 1.16 c-1.36 -0.04 -2.68 -0.32 -3.88 -1 c-1.68 -0.96 -2.72 -2.36 -3.12 -4.28 c-0.76 -3.56 1.48 -7.24 5.04 -8.2 c1.32 -0.36 2.56 -0.16 3.8 0.32 c0.92 0.36 1.8 0.84 2.6 1.4 c0.12 0.12 0.32 0.16 0.48 0.24 c0.08 -0.24 0.12 -0.44 0.16 -0.64 c0.04 -0.08 0 -0.2 0 -0.28 c-0.16 -5.08 -0.08 -10.16 0 -15.28 l0 -1.52 c-0.04 -0.64 -0.08 -0.68 -0.76 -0.72 c-0.44 -0.08 -0.92 -0.12 -1.36 -0.24 c-0.24 -0.08 -0.48 -0.28 -0.64 -0.48 c-0.64 -0.8 -0.24 -1.92 0.76 -2.24 c0.32 -0.08 0.64 -0.08 0.96 -0.08 l5.48 -0.12 c0.48 0 0.92 0.04 1.32 0.24 z">
        </path>
    </g>
</svg>